<?xml version="1.0" encoding="utf-8"?>
<!-- Generator: Adobe Illustrator 26.0.2, SVG Export Plug-In . SVG Version: 6.00 Build 0)  -->
<svg version="1.1" id="Layer_1" xmlns="http://www.w3.org/2000/svg" xmlns:xlink="http://www.w3.org/1999/xlink" x="0px" y="0px"
	 viewBox="0 0 88 106.5" style="enable-background:new 0 0 88 106.5;" xml:space="preserve">
<style type="text/css">
	.st0{fill:#FFFFFF;stroke:#D0ADA7;stroke-width:3;stroke-miterlimit:10;}
</style>
<path class="st0" d="M1.6,35.8c-0.4-6,0.2-12.3,3.5-17.3s10.1-8,15.6-5.6c5.2,2.3,7.4,8.3,8.9,13.7c2.6,9.6,4.3,19.4,5,29.3
	C39.9,43.8,45.2,31.6,52,20.3c4.5-7.5,10.2-14.9,18.4-17.9c1.8-0.7,3.7-1.1,5.5-0.8c4.9,0.7,7.9,5.9,9.1,10.7
	c5.1,19.3-4.5,39.3-15.7,55.9c-7.2,10.7-15.1,21-23.9,30.4c-6.6,7.1-10.9,9.7-16.7,0.6C17,80.7,3,58.1,1.6,35.8z"/>
</svg>
