<?xml version="1.0" encoding="utf-8"?>
<!-- Generator: Adobe Illustrator 26.0.2, SVG Export Plug-In . SVG Version: 6.00 Build 0)  -->
<svg version="1.1" id="Layer_1" xmlns="http://www.w3.org/2000/svg" xmlns:xlink="http://www.w3.org/1999/xlink" x="0px" y="0px"
	 viewBox="0 0 88 106.5" style="enable-background:new 0 0 88 106.5;" xml:space="preserve">
<style type="text/css">
	.st0{display:none;fill:#FFFFFF;}
	.st1{stroke:#FFFFFF;stroke-miterlimit:10;}
	.st2{fill:#FFFFFF;stroke:#211915;stroke-miterlimit:10;}
	.st3{fill:#FFFFFF;stroke:#000000;stroke-miterlimit:10;}
	.st4{fill:#663333;stroke:#000000;stroke-miterlimit:10;}
	.st5{fill:#DDBEA9;stroke:#000000;stroke-miterlimit:10;}
	.st6{fill:#CB997E;stroke:#000000;stroke-miterlimit:10;}
	.st7{fill:#D0ADA7;stroke:#000000;stroke-miterlimit:10;}
	.st8{fill:#E2EAFC;stroke:#000000;stroke-miterlimit:10;}
	.st9{fill:#B7B7A4;stroke:#000000;stroke-miterlimit:10;}
	.st10{fill:none;stroke:#828185;stroke-width:0.75;stroke-miterlimit:10;}
	.st11{fill:none;stroke:#000000;stroke-miterlimit:10;}
	.st12{stroke:#000000;stroke-miterlimit:10;}
	.st13{fill:#FFFFFF;stroke:#211915;stroke-width:3;stroke-miterlimit:10;}
	.st14{stroke:#FFFFFF;stroke-width:3;stroke-miterlimit:10;}
	.st15{fill:#FFFFFF;}
	.st16{fill:#FFFFFF;stroke:#000000;stroke-width:3;stroke-miterlimit:10;}
	.st17{fill:#D0ADA7;}
	.st18{fill-rule:evenodd;clip-rule:evenodd;}
	.st19{fill:none;}
</style>
<path class="st16" d="M1.6,35.8c-0.4-6,0.2-12.3,3.5-17.3c3.3-5,10.1-8,15.6-5.6c5.2,2.3,7.4,8.3,8.9,13.7c2.6,9.6,4.3,19.4,5,29.3
	C39.9,43.8,45.2,31.6,52,20.3c4.5-7.5,10.2-14.9,18.4-17.9c1.8-0.7,3.7-1.1,5.5-0.8c4.9,0.7,7.9,5.9,9.1,10.7
	c5.1,19.3-4.5,39.3-15.7,55.9c-7.2,10.7-15.1,21-23.9,30.4c-6.6,7.1-10.9,9.7-16.7,0.6C17,80.7,3,58.1,1.6,35.8z"/>
</svg>
