<?xml version="1.0" encoding="utf-8"?>
<!-- Generator: Adobe Illustrator 26.0.2, SVG Export Plug-In . SVG Version: 6.00 Build 0)  -->
<svg version="1.1" id="Layer_1" xmlns="http://www.w3.org/2000/svg" xmlns:xlink="http://www.w3.org/1999/xlink" x="0px" y="0px"
	 viewBox="0 0 386.9 386.9" style="enable-background:new 0 0 386.9 386.9;" xml:space="preserve">
<style type="text/css">
	.st0{display:none;fill:#FFFFFF;}
	.st1{stroke:#FFFFFF;stroke-miterlimit:10;}
	.st2{fill:#FFFFFF;stroke:#211915;stroke-miterlimit:10;}
	.st3{fill:#FFFFFF;stroke:#000000;stroke-miterlimit:10;}
	.st4{fill:#663333;stroke:#000000;stroke-miterlimit:10;}
	.st5{fill:#DDBEA9;stroke:#000000;stroke-miterlimit:10;}
	.st6{fill:#CB997E;stroke:#000000;stroke-miterlimit:10;}
	.st7{fill:#D0ADA7;stroke:#000000;stroke-miterlimit:10;}
	.st8{fill:#E2EAFC;stroke:#000000;stroke-miterlimit:10;}
	.st9{fill:#B7B7A4;stroke:#000000;stroke-miterlimit:10;}
	.st10{fill:none;stroke:#828185;stroke-width:0.75;stroke-miterlimit:10;}
	.st11{fill:none;stroke:#000000;stroke-miterlimit:10;}
	.st12{stroke:#000000;stroke-miterlimit:10;}
	.st13{fill:#FFFFFF;stroke:#211915;stroke-width:3;stroke-miterlimit:10;}
	.st14{stroke:#FFFFFF;stroke-width:3;stroke-miterlimit:10;}
	.st15{fill:#FFFFFF;}
	.st16{fill:#FFFFFF;stroke:#000000;stroke-width:3;stroke-miterlimit:10;}
	.st17{fill:#D0ADA7;}
	.st18{fill-rule:evenodd;clip-rule:evenodd;}
	.st19{fill:none;}
</style>
<circle class="st13" cx="193.5" cy="193.5" r="192"/>
<g>
	<g>
		<path d="M58.5,110.9h46.9l42.1,111.2l38.7-111.2h47.9v7.1h-11.7c-4.1,0-6.9,0.6-8.3,1.8c-1.4,1.2-2.1,3.3-2.1,6.3v111.5
			c0,2.2,0.9,3.9,2.6,5.1c1.7,1.2,4.7,1.8,8.9,1.8h10.8v7.1h-64.4v-7.1h12c3.4,0,6-0.6,7.6-2c1.7-1.3,2.5-3,2.5-5V118.1l-46.5,133.6
			h-6.4L88.8,118.6v102.3c0,6.1,0.8,10.6,2.3,13.7c1.5,3,3.7,5.3,6.5,6.9c2.8,1.6,7.5,2.6,14,3v7.1H58.5v-7.1
			c8.7-0.6,14.6-2.4,17.7-5.6c3.1-3.2,4.7-8.8,4.7-16.8V125c0-2.4-0.7-4.2-2.2-5.3c-1.5-1.1-4.2-1.7-8.2-1.7h-12V110.9z"/>
		<path d="M309.2,121.9l6.6-13.6h6l2.5,56.6h-6.4c-4.2-15.9-9.5-27.7-15.8-35.2c-7.9-9.5-17.3-14.2-28.2-14.2
			c-11.8,0-21.4,5.3-28.8,15.8c-7.4,10.5-11.1,28.4-11.1,53.5c0,21.1,4.3,37.2,12.8,48.4c7.2,9.4,17.4,14.1,30.5,14.1
			c11.4,0,21-3.7,28.7-11c7.7-7.3,12.8-18.4,15.1-33.2h6.8c-2,16.8-7.7,29.6-17.2,38.6c-9.5,9-21.5,13.5-36,13.5
			c-11.7,0-22.5-3-32.3-8.9c-9.8-5.9-17.6-14.4-23.5-25.5c-5.9-11.1-8.8-23.2-8.8-36.4c0-14,3-27.2,9.1-39.5
			c6.1-12.3,13.8-21.6,23.3-27.7c9.5-6.2,19.6-9.3,30.6-9.3c6.1,0,12,1,17.7,3.1C296.2,113.2,302.5,116.8,309.2,121.9z"/>
	</g>
	<g>
		<path d="M64.7,273.4h0.6v-0.3c0-1.9-1-2.6-2.4-2.6c-1.5,0-2.5,0.8-2.5,0.8l-0.4-0.6c0,0,1-1,2.9-1c2,0,3.1,1.1,3.1,3.3v5.6h-0.7
			v-1.1c0-0.5,0.1-0.8,0.1-0.8h0c0,0-0.8,2.1-3,2.1c-1.4,0-3-0.8-3-2.5C59.3,273.5,63.1,273.4,64.7,273.4z M62.3,278.3
			c1.9,0,3-2,3-3.7v-0.5h-0.6c-1.5,0-4.6,0-4.6,2.3C60.1,277.3,60.8,278.3,62.3,278.3z"/>
		<path d="M78,269.8c2.1,0,3.1,1.2,3.1,1.2l-0.5,0.6c0,0-1-1.1-2.7-1.1c-2,0-3.7,1.5-3.7,3.9c0,2.3,1.7,3.8,3.7,3.8
			c1.9,0,2.9-1.3,2.9-1.3l0.4,0.6c0,0-1.1,1.4-3.3,1.4c-2.5,0-4.5-1.8-4.5-4.5S75.6,269.8,78,269.8z"/>
		<path d="M92.8,269.8c2.1,0,3.1,1.2,3.1,1.2l-0.5,0.6c0,0-1-1.1-2.7-1.1c-2,0-3.7,1.5-3.7,3.9c0,2.3,1.7,3.8,3.7,3.8
			c1.9,0,2.9-1.3,2.9-1.3l0.4,0.6c0,0-1.1,1.4-3.3,1.4c-2.5,0-4.5-1.8-4.5-4.5S90.4,269.8,92.8,269.8z"/>
		<path d="M107.3,269.8c2.4,0,3.6,1.9,3.6,4c0,0.2,0,0.5,0,0.5h-7c0,2.5,1.7,4,3.7,4c1.7,0,2.7-1.1,2.7-1.1l0.4,0.6
			c0,0-1.2,1.2-3.1,1.2c-2.5,0-4.5-1.8-4.5-4.5C103.1,271.5,105.1,269.8,107.3,269.8z M110.1,273.6c-0.1-2.1-1.4-3.1-2.8-3.1
			c-1.6,0-3.1,1-3.4,3.1H110.1z"/>
		<path d="M118.2,277.1c0,0,1,1.1,2.7,1.1c1.1,0,2-0.6,2-1.6c0-2.2-4.8-1.6-4.8-4.4c0-1.5,1.3-2.4,2.8-2.4c1.8,0,2.6,0.9,2.6,0.9
			l-0.4,0.6c0,0-0.7-0.8-2.2-0.8c-1,0-2,0.5-2,1.6c0,2.3,4.8,1.6,4.8,4.5c0,1.4-1.2,2.4-2.8,2.4c-2.1,0-3.2-1.3-3.2-1.3L118.2,277.1
			z"/>
		<path d="M135.2,269.8c2.5,0,4.5,2,4.5,4.5c0,2.6-2,4.6-4.5,4.6s-4.5-2-4.5-4.6C130.7,271.8,132.7,269.8,135.2,269.8z M135.2,278.2
			c2.1,0,3.7-1.7,3.7-3.9c0-2.2-1.7-3.8-3.7-3.8c-2.1,0-3.7,1.6-3.7,3.8C131.5,276.5,133.1,278.2,135.2,278.2z"/>
		<path d="M147.3,270h0.7v1.7c0,0.4-0.1,0.7-0.1,0.7h0c0.4-1.3,1.4-2.4,2.8-2.4c0.3,0,0.5,0.1,0.5,0.1v0.7c0,0-0.2,0-0.4,0
			c-1.4,0-2.2,1.1-2.6,2.4c-0.2,0.6-0.3,1.3-0.3,1.8v3.8h-0.7V270z"/>
		<path d="M158.4,266.5h0.9v1.3h-0.9V266.5z M158.4,270h0.7v8.7h-0.7V270z"/>
		<path d="M171.3,269.8c2.5,0,4.5,2,4.5,4.5c0,2.6-2,4.6-4.5,4.6c-2.5,0-4.5-2-4.5-4.6C166.8,271.8,168.8,269.8,171.3,269.8z
			 M171.3,278.2c2.1,0,3.7-1.7,3.7-3.9c0-2.2-1.7-3.8-3.7-3.8c-2.1,0-3.7,1.6-3.7,3.8C167.6,276.5,169.3,278.2,171.3,278.2z"/>
		<path d="M183.2,277.1c0,0,1,1.1,2.7,1.1c1.1,0,2-0.6,2-1.6c0-2.2-4.8-1.6-4.8-4.4c0-1.5,1.3-2.4,2.8-2.4c1.8,0,2.6,0.9,2.6,0.9
			l-0.4,0.6c0,0-0.7-0.8-2.2-0.8c-1,0-2,0.5-2,1.6c0,2.3,4.8,1.6,4.8,4.5c0,1.4-1.2,2.4-2.8,2.4c-2.1,0-3.2-1.3-3.2-1.3L183.2,277.1
			z"/>
		<path d="M208.2,272.1L208.2,272.1c0,0-1.8-0.5-1.8-2.8c0-1.7,1.3-3,3.6-3c0.5,0,1.3,0.2,1.3,0.2l-0.2,0.7c0,0-0.6-0.1-1.1-0.1
			c-1.5,0-2.7,0.9-2.7,2.3c0,0.9,0.3,2.5,3,2.5h2.8V270h0.7v1.8h1.7v0.7h-1.7v1.9c0,3.1-1.6,4.5-3.9,4.5c-2.4,0-4-1.5-4-3.5
			C205.9,274,206.7,272.6,208.2,272.1z M209.9,278.2c1.9,0,3.1-1,3.1-3.8v-1.9h-2.8c-2.4,0-3.6,1.2-3.6,2.9
			C206.7,276.9,207.9,278.2,209.9,278.2z"/>
		<path d="M233.1,266.5h0.7v10.2c0,1.2,0.6,1.4,1,1.4c0.1,0,0.3,0,0.3,0v0.7c0,0-0.2,0-0.3,0c-0.5,0-1.7-0.2-1.7-1.8V266.5z"/>
		<path d="M246,269.8c2.4,0,3.6,1.9,3.6,4c0,0.2,0,0.5,0,0.5h-7c0,2.5,1.7,4,3.7,4c1.7,0,2.7-1.1,2.7-1.1l0.4,0.6
			c0,0-1.2,1.2-3.1,1.2c-2.5,0-4.5-1.8-4.5-4.5C241.8,271.5,243.8,269.8,246,269.8z M248.8,273.6c-0.1-2.1-1.4-3.1-2.8-3.1
			c-1.6,0-3.1,1-3.4,3.1H248.8z"/>
		<path d="M257.3,270h0.7v1.5c0,0.4-0.1,0.7-0.1,0.7h0c0.3-0.8,1.5-2.5,3.7-2.5c2.3,0,2.9,1.3,2.9,3.4v5.5h-0.7v-5.3
			c0-1.5-0.2-2.9-2.1-2.9c-1.6,0-3.1,1.1-3.5,2.8c-0.1,0.4-0.1,0.8-0.1,1.2v4.2h-0.7V270z"/>
		<path d="M276.6,269.8c2.1,0,3.1,1.2,3.1,1.2l-0.5,0.6c0,0-1-1.1-2.7-1.1c-2,0-3.7,1.5-3.7,3.9c0,2.3,1.7,3.8,3.7,3.8
			c1.9,0,2.9-1.3,2.9-1.3l0.4,0.6c0,0-1.1,1.4-3.3,1.4c-2.5,0-4.5-1.8-4.5-4.5S274.1,269.8,276.6,269.8z"/>
		<path d="M291.1,269.8c2.4,0,3.6,1.9,3.6,4c0,0.2,0,0.5,0,0.5h-7c0,2.5,1.7,4,3.7,4c1.7,0,2.7-1.1,2.7-1.1l0.4,0.6
			c0,0-1.2,1.2-3.1,1.2c-2.5,0-4.5-1.8-4.5-4.5C286.8,271.5,288.8,269.8,291.1,269.8z M293.8,273.6c-0.1-2.1-1.4-3.1-2.8-3.1
			c-1.6,0-3.1,1-3.4,3.1H293.8z"/>
		<path d="M302.3,270h0.7v1.7c0,0.4-0.1,0.7-0.1,0.7h0c0.4-1.3,1.4-2.4,2.8-2.4c0.3,0,0.5,0.1,0.5,0.1v0.7c0,0-0.2,0-0.4,0
			c-1.4,0-2.2,1.1-2.6,2.4c-0.2,0.6-0.3,1.3-0.3,1.8v3.8h-0.7V270z"/>
		<path d="M314.5,266.5h1l-1.4,1.9h-0.8L314.5,266.5z M313.4,270h0.7v8.7h-0.7V270z"/>
		<path d="M327.1,273.4h0.6v-0.3c0-1.9-1-2.6-2.4-2.6c-1.5,0-2.5,0.8-2.5,0.8l-0.4-0.6c0,0,1-1,2.9-1c2,0,3.1,1.1,3.1,3.3v5.6h-0.7
			v-1.1c0-0.5,0.1-0.8,0.1-0.8h0c0,0-0.8,2.1-3,2.1c-1.4,0-3-0.8-3-2.5C321.7,273.5,325.5,273.4,327.1,273.4z M324.7,278.3
			c1.9,0,3-2,3-3.7v-0.5h-0.6c-1.5,0-4.6,0-4.6,2.3C322.5,277.3,323.2,278.3,324.7,278.3z"/>
	</g>
</g>
</svg>
