<?xml version="1.0" encoding="utf-8"?>
<!-- Generator: Adobe Illustrator 26.0.2, SVG Export Plug-In . SVG Version: 6.00 Build 0)  -->
<svg version="1.1" id="Layer_1" xmlns="http://www.w3.org/2000/svg" xmlns:xlink="http://www.w3.org/1999/xlink" x="0px" y="0px"
	 viewBox="0 0 949.2 130.3" style="enable-background:new 0 0 949.2 130.3;" xml:space="preserve">
<style type="text/css">
	.st0{display:none;fill:#FFFFFF;}
	.st1{stroke:#FFFFFF;stroke-miterlimit:10;}
	.st2{fill:#FFFFFF;stroke:#211915;stroke-miterlimit:10;}
	.st3{fill:#FFFFFF;stroke:#000000;stroke-miterlimit:10;}
	.st4{fill:#663333;stroke:#000000;stroke-miterlimit:10;}
	.st5{fill:#DDBEA9;stroke:#000000;stroke-miterlimit:10;}
	.st6{fill:#CB997E;stroke:#000000;stroke-miterlimit:10;}
	.st7{fill:#D0ADA7;stroke:#000000;stroke-miterlimit:10;}
	.st8{fill:#E2EAFC;stroke:#000000;stroke-miterlimit:10;}
	.st9{fill:#B7B7A4;stroke:#000000;stroke-miterlimit:10;}
	.st10{fill:none;stroke:#828185;stroke-width:0.75;stroke-miterlimit:10;}
	.st11{fill:none;stroke:#000000;stroke-miterlimit:10;}
	.st12{stroke:#000000;stroke-miterlimit:10;}
	.st13{fill:#FFFFFF;stroke:#211915;stroke-width:3;stroke-miterlimit:10;}
	.st14{stroke:#FFFFFF;stroke-width:3;stroke-miterlimit:10;}
	.st15{fill:#FFFFFF;}
	.st16{fill:#FFFFFF;stroke:#000000;stroke-width:3;stroke-miterlimit:10;}
	.st17{fill:#D0ADA7;}
	.st18{fill-rule:evenodd;clip-rule:evenodd;}
	.st19{fill:none;}
</style>
<g>
	<path d="M24.4,32.4h24l21.6,57l19.9-57h24.6V36h-6c-2.1,0-3.5,0.3-4.3,0.9s-1.1,1.7-1.1,3.2v57.2c0,1.1,0.4,2,1.3,2.6
		s2.4,0.9,4.5,0.9h5.5v3.7H81.5v-3.7h6.2c1.8,0,3.1-0.3,3.9-1c0.8-0.7,1.3-1.5,1.3-2.6V36L69,104.6h-3.3L40,36.3v52.5
		c0,3.1,0.4,5.5,1.2,7s1.9,2.7,3.3,3.6c1.4,0.8,3.8,1.3,7.2,1.5v3.7H24.4v-3.7c4.5-0.3,7.5-1.3,9.1-2.9c1.6-1.6,2.4-4.5,2.4-8.6
		V39.6c0-1.2-0.4-2.1-1.1-2.7C34,36.3,32.7,36,30.6,36h-6.2V32.4z"/>
	<path d="M172.1,30.9h3.3l25.9,66.1c1,2.7,3.2,4,6.4,4h2.2v3.7h-28.8v-3.7h2.3c3,0,5.1-0.3,6.3-1c0.8-0.5,1.3-1.2,1.3-2.1
		c0-0.6-0.1-1.1-0.3-1.8l-6-15.3h-28.6l-3.4,8.8c-0.9,2.3-1.3,4.2-1.3,5.6c0,1.6,0.7,3,2.2,4.1c1.5,1.1,3.6,1.7,6.5,1.7h2.4v3.7
		h-26.2v-3.7c2.8,0,5-0.6,6.6-1.8c1.6-1.2,3.1-3.5,4.5-7L172.1,30.9z M170.7,44.8l-13,32.2h25.5L170.7,44.8z"/>
	<path d="M231.9,32.4h37.3c7.2,0,12.8,1.6,16.8,4.9c4,3.3,6,7.6,6,12.9c0,3.2-0.8,6-2.4,8.5c-1.6,2.5-3.9,4.5-6.8,6
		c-3,1.5-7.7,2.5-14,3.2c4.6,1.3,7.8,2.5,9.6,3.7s3.2,2.8,4.2,4.7s2.3,5.9,3.7,11.8c1,4.3,2,7.2,3.1,8.7c0.8,1.2,1.8,1.8,2.7,1.8
		c1,0,1.9-0.7,2.8-2.2c0.9-1.5,1.4-4.1,1.6-7.8h3.3c-0.6,11.1-4.7,16.6-12.3,16.6c-2.4,0-4.4-0.6-6.2-1.8c-1.7-1.2-3.1-3-3.9-5.3
		c-0.7-1.8-1.4-6.4-2.3-13.8c-0.5-4.3-1.3-7.4-2.3-9.2c-1.1-1.8-2.7-3.3-5-4.4s-4.9-1.7-8.1-1.7h-5.9v28.4c0,1.2,0.3,2.1,0.9,2.5
		c0.8,0.6,2,0.9,3.7,0.9h6.9v3.7h-33.5v-3.7h7.1c1.6,0,2.7-0.3,3.4-0.9s1.1-1.5,1.1-2.5V39.8c0-1.2-0.4-2.2-1.1-2.8
		c-0.7-0.6-1.9-0.9-3.4-0.9h-7.1V32.4z M253.9,65.6h8.5c5.7,0,10.2-1.1,13.5-3.2c3.2-2.2,4.9-6,4.9-11.5c0-3.8-0.6-6.8-1.8-9
		c-1.2-2.2-2.8-3.7-4.8-4.5c-2-0.8-5.9-1.2-11.7-1.2c-3.8,0-6.2,0.3-7.1,0.8c-0.9,0.5-1.4,1.5-1.4,2.8V65.6z"/>
	<path d="M325.3,32.4h33.3V36h-5.7c-2.5,0-4.1,0.3-4.8,1c-0.7,0.6-1,2-1,4v54.7c0,2.2,0.3,3.5,0.9,4.1c0.8,0.7,2.2,1.1,4.2,1.1h6.4
		v3.7h-33.3v-3.7h6.3c2.2,0,3.6-0.3,4.3-1c0.7-0.7,1-2.1,1-4.2V41c0-2.1-0.3-3.4-0.9-3.9c-0.9-0.7-2.6-1.1-5-1.1h-5.7V32.4z"/>
	<path d="M417.3,30.9h3.3l25.9,66.1c1,2.7,3.2,4,6.4,4h2.2v3.7h-28.8v-3.7h2.3c3,0,5.1-0.3,6.3-1c0.8-0.5,1.3-1.2,1.3-2.1
		c0-0.6-0.1-1.1-0.3-1.8l-6-15.3h-28.6l-3.4,8.8c-0.9,2.3-1.3,4.2-1.3,5.6c0,1.6,0.7,3,2.2,4.1c1.5,1.1,3.6,1.7,6.5,1.7h2.4v3.7
		h-26.2v-3.7c2.8,0,5-0.6,6.6-1.8c1.6-1.2,3.1-3.5,4.5-7L417.3,30.9z M415.8,44.8l-13,32.2h25.5L415.8,44.8z"/>
	<path d="M574.7,38l3.4-7h3.1l1.3,29.1h-3.3c-2.1-8.2-4.9-14.2-8.1-18.1c-4-4.9-8.9-7.3-14.5-7.3c-6.1,0-11,2.7-14.8,8.1
		S536,57.4,536,70.3c0,10.8,2.2,19.1,6.5,24.8c3.7,4.8,8.9,7.2,15.6,7.2c5.9,0,10.8-1.9,14.7-5.6c4-3.8,6.6-9.4,7.8-17h3.5
		c-1,8.6-4,15.2-8.8,19.8s-11,6.9-18.5,6.9c-6,0-11.5-1.5-16.6-4.5s-9-7.4-12.1-13.1c-3-5.7-4.5-11.9-4.5-18.7
		c0-7.2,1.6-13.9,4.7-20.3c3.1-6.3,7.1-11.1,11.9-14.2c4.8-3.2,10.1-4.8,15.7-4.8c3.1,0,6.2,0.5,9.1,1.6S571.2,35.4,574.7,38z"/>
	<path d="M612.7,32.4H646V36h-5.7c-2.5,0-4.1,0.3-4.8,1c-0.7,0.6-1,2-1,4v54.7c0,2.2,0.3,3.5,0.9,4.1c0.8,0.7,2.2,1.1,4.2,1.1h6.4
		v3.7h-33.3v-3.7h6.3c2.2,0,3.6-0.3,4.3-1c0.7-0.7,1-2.1,1-4.2V41c0-2.1-0.3-3.4-0.9-3.9c-0.9-0.7-2.6-1.1-5-1.1h-5.7V32.4z"/>
	<path d="M676.3,32.4h57.2l1.4,24.4h-3.3c-1.3-7.7-3.4-13.1-6.2-16.1c-2.8-3.1-6.5-4.6-11-4.6h-14.1c-1.1,0-2,0.3-2.6,0.9
		c-0.6,0.6-0.9,1.6-0.9,2.8v25.7h6.2c3.3,0,6-1.2,8.1-3.6c2.1-2.4,3.2-6,3.3-10.9h3.4v33.4h-3.4c-0.2-5.5-1.3-9.5-3.4-11.9
		c-2.1-2.4-4.9-3.6-8.5-3.6h-5.6v28.7c0,1,0.3,1.8,1,2.4c0.7,0.6,1.9,0.8,3.5,0.8h11.2c12.1,0,19.1-7.7,21-23.2h3.5l-1.2,26.9h-59.5
		v-3.7h4.9c1.9,0,3.3-0.3,4.1-1s1.2-1.6,1.2-2.9V39.8c0-1.3-0.3-2.2-1-2.8s-1.8-0.9-3.2-0.9h-5.9V32.4z"/>
	<path d="M765.1,32.4h33.5V36h-8c-1.3,0-2.2,0.3-2.8,1c-0.6,0.7-0.9,1.7-0.9,3.1v57c0,1.4,0.4,2.3,1.1,2.9s2.3,0.9,4.6,0.9h10.1
		c5.4,0,9.8-1.8,13.2-5.4s5.9-9.8,7.5-18.7h3.4l-1.7,27.8h-60.2v-3.7h5.9c2,0,3.4-0.4,4.2-1.1c0.8-0.8,1.2-2,1.2-3.7V39.7
		c0-1.2-0.3-2.1-1-2.7s-1.7-0.9-3-0.9h-7.3V32.4z"/>
	<path d="M886.9,30.9c6.1,0,11.8,1.6,17.1,4.8s9.5,7.7,12.5,13.4c3,5.7,4.5,12.2,4.5,19.4s-1.5,13.7-4.5,19.5s-7.2,10.3-12.5,13.5
		c-5.3,3.2-10.9,4.9-16.8,4.9c-5.8,0-11.2-1.6-16.3-4.8s-9.2-7.7-12.2-13.6s-4.6-12.5-4.6-19.7c0-7.1,1.5-13.5,4.5-19.2
		s7.1-10.2,12.2-13.4S881.3,30.9,886.9,30.9z M887.7,34.6c-6.3,0-11.5,2.6-15.4,7.9c-3.9,5.3-5.9,13.9-5.9,25.8
		c0,12.9,2,21.9,6.1,26.8c4,4.9,9,7.4,15,7.4c4.2,0,7.8-1.1,11-3.4c3.2-2.2,5.7-5.8,7.5-10.7c1.9-4.9,2.8-11.3,2.8-19.2
		c0-8.7-0.9-15.4-2.6-20.3s-4.3-8.5-7.5-10.8C895.4,35.8,891.7,34.6,887.7,34.6z"/>
</g>
</svg>
