<?xml version="1.0" encoding="utf-8"?>
<!-- Generator: Adobe Illustrator 26.0.2, SVG Export Plug-In . SVG Version: 6.00 Build 0)  -->
<svg version="1.1" id="Capa_1" xmlns="http://www.w3.org/2000/svg" xmlns:xlink="http://www.w3.org/1999/xlink" x="0px" y="0px"
	 viewBox="0 0 16 16" style="enable-background:new 0 0 16 16;" xml:space="preserve">
<style type="text/css">
	.st0{fill:#CB997E;}
</style>
<path class="st0" d="M0,4c0-1.1,0.9-2,2-2h12c1.1,0,2,0.9,2,2v1H0V4z M0,7v5c0,1.1,0.9,2,2,2h12c1.1,0,2-0.9,2-2V7H0z M3,9h1
	c0.6,0,1,0.4,1,1v1c0,0.6-0.4,1-1,1H3c-0.6,0-1-0.4-1-1v-1C2,9.4,2.4,9,3,9z"/>
</svg>
